<svg data-name="Layer 1" xmlns="http://www.w3.org/2000/svg" width="572" height="1149.333" viewBox="0 0 429 862"><path d="M64 862a60 60 0 01-60-60V318a4 4 0 01-4-4v-54a4 4 0 014-4v-16a4 4 0 01-4-4v-54a4 4 0 014-4v-30a4 4 0 01-4-4v-24a4 4 0 014-4V60A60 60 0 0164 0h301a60 60 0 0160 60v139a4 4 0 014 4v90a4 4 0 01-4 4v505a60 60 0 01-60 60z" fill="#2d2d41"/><path d="M255 34a6 6 0 116 6 6 6 0 01-6-6zm-64 3a3 3 0 010-6h47a3 3 0 110 6z" fill="#8a90a2"/><path d="M362 837H67a39.966 39.966 0 01-40-39.932V65a39.967 39.967 0 0139.934-40H105a5.007 5.007 0 015 4.91V33a21.982 21.982 0 0021.964 22H299a19.984 19.984 0 0020-19.968V30a5.006 5.006 0 014.995-5H362a39.967 39.967 0 0140 39.934V797a39.966 39.966 0 01-39.932 40z" fill="#fff"/><path d="M362 25h-38.005A5.006 5.006 0 00319 30v5.032A19.984 19.984 0 01299 55H131.964A21.982 21.982 0 01110 33v-3.09a5.007 5.007 0 00-5-4.91H66.934A39.967 39.967 0 0027 65v90h375V64.934A39.967 39.967 0 00362 25z" fill="#f5f5f5"/><path opacity=".3" d="M27 154.75h375v.5H27z"/><g data-name="Navigation Bar - Modal Sheet"><path d="M332.013 131.814c0-3.8 2.05-6.142 5.363-6.142a4.723 4.723 0 014.951 4.173h-2.058a2.834 2.834 0 00-2.893-2.31c-1.984 0-3.225 1.637-3.225 4.27 0 2.642 1.24 4.279 3.234 4.279a2.77 2.77 0 002.892-2.14h2.058c-.275 2.39-2.253 4.003-4.95 4.003-3.315 0-5.372-2.35-5.372-6.133zm11.537 3.33c0-1.605 1.208-2.528 3.363-2.658l2.285-.137v-.746c0-.867-.583-1.353-1.669-1.353-.924 0-1.555.324-1.742.924h-1.896c.162-1.564 1.629-2.56 3.735-2.56 2.277 0 3.558 1.11 3.558 2.989v6.053h-1.937v-1.216h-.138a2.924 2.924 0 01-2.626 1.362 2.662 2.662 0 01-2.932-2.658zm5.648-.737v-.705l-2 .13c-1.128.072-1.654.477-1.654 1.199 0 .745.64 1.19 1.531 1.19a1.944 1.944 0 002.123-1.814zm4.002-5.616h1.937v1.418h.137a2.65 2.65 0 012.634-1.596c1.977 0 3.055 1.192 3.055 3.306v5.737h-2.01v-5.259c0-1.353-.567-2.033-1.79-2.033a1.906 1.906 0 00-1.953 2.13v5.162h-2.01zm15.492 2.982a1.84 1.84 0 00-1.953-1.474c-1.377 0-2.195 1.061-2.195 2.9 0 1.864.826 2.95 2.195 2.95a1.8 1.8 0 001.953-1.418h1.912c-.218 1.855-1.612 3.103-3.857 3.103-2.665 0-4.237-1.718-4.237-4.635 0-2.876 1.563-4.586 4.23-4.586a3.528 3.528 0 013.864 3.16zm11.118 3.444c-.366 1.612-1.848 2.617-3.939 2.617-2.608 0-4.18-1.726-4.18-4.578s1.596-4.643 4.164-4.643c2.528 0 4.043 1.677 4.043 4.473v.648h-6.19v.105a2.2 2.2 0 002.22 2.399 1.973 1.973 0 001.977-1.021zm-6.094-2.852h4.173a2.005 2.005 0 00-2.042-2.156 2.118 2.118 0 00-2.131 2.156zm7.884-7.001h2.01v12.292h-2.01z" fill="#007aff" data-name="Right Accessory"/><path d="M198.302 138h-7.636v-11.98h2.141v10.103h5.495zm1.228-4.541c0-2.93 1.67-4.723 4.367-4.723 2.706 0 4.366 1.785 4.366 4.723 0 2.947-1.652 4.723-4.366 4.723-2.723 0-4.366-1.776-4.366-4.723zm6.616 0c0-1.893-.821-2.996-2.249-2.996-1.436 0-2.258 1.103-2.258 2.996 0 1.901.822 2.997 2.258 2.997s2.25-1.096 2.25-2.997zm4.068 5.404h2.067c.133.623.863 1.022 1.992 1.022 1.41 0 2.233-.664 2.233-1.802v-1.718h-.14a2.972 2.972 0 01-2.774 1.502c-2.29 0-3.718-1.776-3.718-4.508 0-2.78 1.436-4.59 3.752-4.59a3.082 3.082 0 012.814 1.602h.14v-1.452h1.985v9.114c0 2.1-1.677 3.42-4.325 3.42-2.333 0-3.86-1.03-4.026-2.59zm6.325-5.504c0-1.734-.871-2.838-2.3-2.838-1.435 0-2.249 1.104-2.249 2.838 0 1.736.814 2.831 2.25 2.831s2.3-1.095 2.3-2.83zm9.297 4.641v-11.98h2.142V138zm4.881-9.081h1.984v1.452h.14a2.714 2.714 0 012.698-1.635c2.025 0 3.13 1.22 3.13 3.387V138h-2.059v-5.387c0-1.386-.58-2.084-1.835-2.084a1.953 1.953 0 00-2 2.184V138h-2.058z"/><g data-name="Left Accessory"><path d="M84.074 140.924a.75.75 0 01-.53-1.28l7.504-7.501-7.504-7.5a.75.75 0 011.06-1.061l8.035 8.03a.75.75 0 010 1.061l-8.035 8.031a.748.748 0 01-.53.22z" fill="#dadada"/><path d="M52.074 140.924a.748.748 0 01-.53-.22l-8.031-8.03a.75.75 0 010-1.061l8.031-8.031a.75.75 0 011.06 1.06l-7.5 7.5 7.5 7.502a.75.75 0 01-.53 1.28z" fill="#007aff"/></g></g><path d="M193.234 101h-1.162l-2.687-9.864h1.285l1.962 8.018h.082l2.208-8.018h1.244l2.208 8.018h.082l1.962-8.018h1.286L199.017 101h-1.162l-2.27-7.786h-.082zm9.987-9.611a.82.82 0 11.82.82.823.823 0 01-.82-.82zm.233 2.242h1.175V101h-1.175zm3.37 3.958v-1.115h4.484v1.115zm6.801 3.411v-9.864h5.988v1.107h-4.757v3.39h4.369v1.094h-4.369V101zm7.656-9.611a.82.82 0 11.82.82.823.823 0 01-.82-.82zm.233 2.242h1.175V101h-1.175zm3.418-.001h1.12v1.163h.11a2.216 2.216 0 012.215-1.292 2.403 2.403 0 012.578 2.727V101h-1.176v-4.484c0-1.327-.56-1.956-1.736-1.956a1.87 1.87 0 00-1.936 2.079v4.36h-1.175zm7.8 3.685c0-2.372 1.3-3.814 3.397-3.814 2.1 0 3.398 1.442 3.398 3.814 0 2.366-1.298 3.815-3.398 3.815-2.098 0-3.397-1.45-3.397-3.815zm5.579 0c0-1.75-.788-2.755-2.182-2.755s-2.18 1.005-2.18 2.755c0 1.743.785 2.755 2.18 2.755s2.182-1.012 2.182-2.755zm-59.238-19.428a1.827 1.827 0 00-1.9-1.327c-1.327 0-2.16 1.06-2.16 2.728 0 1.702.847 2.782 2.16 2.782a1.773 1.773 0 001.9-1.292h1.19a2.846 2.846 0 01-3.084 2.352c-2.064 0-3.384-1.497-3.384-3.842 0-2.297 1.313-3.787 3.377-3.787a2.892 2.892 0 013.09 2.386zm9.611 1.428c0 2.304-1.224 3.815-3.097 3.815a2.473 2.473 0 01-2.303-1.238h-.11v3.569H182v-9.83h1.12v1.23h.11a2.657 2.657 0 012.358-1.36c1.88 0 3.097 1.497 3.097 3.814zm-1.217 0c0-1.722-.806-2.755-2.153-2.755-1.333 0-2.174 1.06-2.174 2.755 0 1.689.841 2.755 2.167 2.755 1.354 0 2.16-1.032 2.16-2.755zm3.008 2.865a.889.889 0 11.889.888.891.891 0 01-.889-.888zm10.254.82h-1.196l-1.648-5.701h-.11l-1.64 5.7h-1.19l-2.064-7.368h1.19l1.449 5.892h.11l1.647-5.892h1.128l1.647 5.892h.11l1.449-5.892h1.182zm3.431-9.611a.82.82 0 11.821.82.823.823 0 01-.82-.82zm.233 2.242h1.176V83h-1.176zm3.37 3.958v-1.115h4.485v1.115zm6.87-2.974h-1.223v-.984h1.223v-.82a1.908 1.908 0 012.14-2.174 4.13 4.13 0 01.792.068v.957a3.236 3.236 0 00-.553-.034c-.848 0-1.203.41-1.203 1.217v.786h1.688v.984h-1.688V83h-1.176zm4.368-3.226a.82.82 0 11.82.82.823.823 0 01-.82-.82zm.232 2.242h1.176V83h-1.176zm3.418-.001h1.121v1.163h.11a2.215 2.215 0 012.215-1.292 2.402 2.402 0 012.577 2.727V83h-1.176v-4.484c0-1.327-.56-1.956-1.736-1.956a1.868 1.868 0 00-1.935 2.079v4.36h-1.176zm7.8 3.685c0-2.372 1.299-3.814 3.398-3.814s3.397 1.442 3.397 3.814c0 2.366-1.299 3.815-3.397 3.815s-3.398-1.45-3.398-3.815zm5.578 0c0-1.75-.786-2.755-2.18-2.755s-2.181 1.005-2.181 2.755c0 1.743.786 2.755 2.18 2.755s2.181-1.012 2.181-2.755zm3.008 2.865a.889.889 0 11.889.888.891.891 0 01-.889-.888zm8.709-4.293a1.827 1.827 0 00-1.9-1.327c-1.326 0-2.16 1.06-2.16 2.728 0 1.702.847 2.782 2.16 2.782a1.773 1.773 0 001.9-1.292h1.19a2.846 2.846 0 01-3.083 2.352c-2.065 0-3.384-1.497-3.384-3.842 0-2.297 1.312-3.787 3.377-3.787a2.892 2.892 0 013.09 2.386zm2.557 1.428c0-2.372 1.299-3.814 3.397-3.814s3.398 1.442 3.398 3.814c0 2.366-1.3 3.815-3.398 3.815s-3.397-1.45-3.397-3.815zm5.578 0c0-1.75-.786-2.755-2.18-2.755s-2.181 1.005-2.181 2.755c0 1.743.786 2.755 2.18 2.755s2.18-1.012 2.18-2.755zm3.062-3.685h1.121v1.163h.11a2.085 2.085 0 012.057-1.292 2.127 2.127 0 012.038 1.292h.109a2.467 2.467 0 012.256-1.292 2.15 2.15 0 012.345 2.406V83h-1.176v-4.82c0-1.086-.513-1.62-1.552-1.62a1.658 1.658 0 00-1.709 1.703V83h-1.176v-5.004a1.396 1.396 0 00-1.538-1.436 1.78 1.78 0 00-1.709 1.873V83h-1.176z"/><path d="M167 77.5V76a3 3 0 00-6 0v1.5a1 1 0 00-1 1V82a1 1 0 001 1h6a1 1 0 001-1v-3.5a1 1 0 00-1-1zm-5-1.5a2 2 0 014 0v1.5h-4z" fill="#090909"/><g data-name="Status Bar"><path d="M382.333 53.666h-16.666A2.67 2.67 0 01363 50.999v-6a2.67 2.67 0 012.667-2.666h16.666A2.67 2.67 0 01385 45v5.999a2.67 2.67 0 01-2.667 2.667zm-16.666-10.333A1.67 1.67 0 00364 45v5.999a1.67 1.67 0 001.667 1.667h16.666A1.67 1.67 0 00384 50.999v-6a1.67 1.67 0 00-1.667-1.666z" opacity=".35"/><path d="M386 46v4a2.17 2.17 0 000-4" style="isolation:isolate" opacity=".4"/><rect x="365" y="44.333" width="18" height="7.333" rx="1.333"/><path d="M350.331 53.297a.313.313 0 01-.221-.093l-2-2.016a.313.313 0 01-.004-.443l.014-.013a3.421 3.421 0 014.419 0 .311.311 0 01.1.226.315.315 0 01-.094.23l-2 2.016a.308.308 0 01-.214.093zm3.508-3.538a.312.312 0 01-.214-.085 4.9 4.9 0 00-6.585 0 .312.312 0 01-.214.085.308.308 0 01-.22-.091l-1.154-1.167a.322.322 0 01-.004-.455l.004-.004a7.158 7.158 0 019.752 0 .322.322 0 01.1.229.326.326 0 01-.094.23l-1.152 1.167a.309.309 0 01-.219.091zm2.655-2.685a.3.3 0 01-.214-.087 8.64 8.64 0 00-11.907 0 .3.3 0 01-.214.087.308.308 0 01-.22-.091l-1.151-1.166a.322.322 0 010-.455v-.001a10.9 10.9 0 0115.08 0 .325.325 0 01.1.228.319.319 0 01-.094.229l-1.157 1.165a.307.307 0 01-.223.091z"/><path data-name="Cellular Connection" d="M336.667 53.334h-1a1 1 0 01-1-1v-8.667a1 1 0 011-1h1a1 1 0 011 1v8.667a1 1 0 01-1 1zm-4.667 0h-1a1 1 0 01-1-1v-6.333a1 1 0 011-1h1a1 1 0 011 1v6.333a1 1 0 01-.999 1zm-4.667 0h-1a1 1 0 01-1-1v-4a1 1 0 011-1h1a1 1 0 011 1v4a1 1 0 01-1 1zm-4.666 0h-1a1 1 0 01-1-1v-2a1 1 0 011-1h1a1 1 0 011 1v2a1 1 0 01-1 1z"/><g data-name="Time Style"><path d="M60.414 50.723h1.882a1.832 1.832 0 001.86 1.28c1.546 0 2.432-1.412 2.454-3.859h-.125a2.915 2.915 0 01-2.739 1.575 3.382 3.382 0 01-3.479-3.508 3.675 3.675 0 013.926-3.713c2.527 0 4.226 1.934 4.226 5.427 0 3.56-1.597 5.66-4.285 5.66a3.55 3.55 0 01-3.72-2.862zm5.88-4.534a2.088 2.088 0 10-4.174-.037 2.088 2.088 0 004.175.037zm4.059.798a1.172 1.172 0 111.172 1.15 1.123 1.123 0 01-1.172-1.15zm0 5.34a1.172 1.172 0 111.172 1.157 1.123 1.123 0 01-1.172-1.158zm9.215-1.011h-5.164v-1.575a136.466 136.466 0 014.307-6.98h2.666v6.958h1.428v1.597h-1.428v2.014h-1.81zm-3.413-1.552h3.442v-5.465h-.102a113.805 113.805 0 00-3.34 5.361zm10.694-5.098h-.125l-2.63 1.846v-1.817l2.762-1.933h1.882V53.33h-1.89z" data-name="Time"/></g></g><g data-name="Home Indicator"><path data-name="Home Indicator-2" d="M150.5 823h129a2.5 2.5 0 012.5 2.5 2.5 2.5 0 01-2.5 2.5h-129a2.5 2.5 0 01-2.5-2.5 2.5 2.5 0 012.5-2.5z"/></g></svg>